<svg xmlns="http://www.w3.org/2000/svg" viewBox="0 0 760 460" font-family="ui-monospace,Consolas,monospace">
<rect width="760" height="460" fill="#FBFBF9" rx="8"/>
<text x="24" y="34" font-size="17" font-weight="bold" fill="#171C1A">Canopy housing — 160 × 110 × 45 mm · ASA</text>
<text x="736" y="34" font-size="11" fill="#4B534E" text-anchor="end">DRAFT — for design review, not fabrication</text>
<polygon points="330.0,260.0 544.8,384.0 544.8,314.2 330.0,190.2" fill="#DDE0D6" stroke="#171C1A" stroke-width="1.2" stroke-linejoin="round"/>
<polygon points="544.8,384.0 397.1,469.2 397.1,399.5 544.8,314.2" fill="#C9CDC0" stroke="#171C1A" stroke-width="1.2" stroke-linejoin="round"/>
<polygon points="330.0,190.2 544.8,314.2 397.1,399.5 182.3,275.5" fill="#EDEFE8" stroke="#171C1A" stroke-width="1.2" stroke-linejoin="round"/>
<polygon points="228.0,249.2 442.8,373.1 397.1,399.5 182.3,275.5" fill="#E3E7DB" stroke="#171C1A" stroke-width="1.2" stroke-linejoin="round"/>
<polyline points="228.0,249.2 442.8,373.1" fill="none" stroke="#4B534E" stroke-width="1.0" stroke-dasharray="4,3"/>
<ellipse cx="312.5" cy="231.1" rx="11.0" ry="6.0" fill="#DDE0D6" stroke="#171C1A" stroke-width="1.1"/>
<polyline points="301.5,231.1 301.5,239.1" fill="none" stroke="#171C1A" stroke-width="1.1"/>
<polyline points="323.5,231.1 323.5,239.1" fill="none" stroke="#171C1A" stroke-width="1.1"/>
<ellipse cx="312.5" cy="239.1" rx="11.0" ry="6.0" fill="#EDEFE8" stroke="#171C1A" stroke-width="1.1"/>
<ellipse cx="312.5" cy="239.1" rx="4.0" ry="2.2" fill="#FBFBF9" stroke="#171C1A" stroke-width="1.1"/>
<ellipse cx="460.2" cy="316.3" rx="11.0" ry="6.0" fill="#DDE0D6" stroke="#171C1A" stroke-width="1.1"/>
<polyline points="449.2,316.3 449.2,324.3" fill="none" stroke="#171C1A" stroke-width="1.1"/>
<polyline points="471.2,316.3 471.2,324.3" fill="none" stroke="#171C1A" stroke-width="1.1"/>
<ellipse cx="460.2" cy="324.3" rx="11.0" ry="6.0" fill="#EDEFE8" stroke="#171C1A" stroke-width="1.1"/>
<ellipse cx="460.2" cy="324.3" rx="4.0" ry="2.2" fill="#FBFBF9" stroke="#171C1A" stroke-width="1.1"/>
<ellipse cx="350.1" cy="225.1" rx="8.0" ry="9.3" fill="#FBFBF9" stroke="#171C1A" stroke-width="1.1"/>
<polygon points="488.4,304.9 505.8,315.0 505.8,304.2 488.4,294.1" fill="#FBFBF9" stroke="#171C1A" stroke-width="1.2" stroke-linejoin="round"/>
<ellipse cx="330.0" cy="306.5" rx="7.2" ry="4.0" fill="none" stroke="#4B534E" stroke-width="0.9"/>
<ellipse cx="363.6" cy="325.9" rx="6.0" ry="3.3" fill="none" stroke="#4B534E" stroke-width="0.9"/>
<ellipse cx="410.5" cy="353.0" rx="9.6" ry="5.3" fill="none" stroke="#4B534E" stroke-width="0.9"/>
<polyline points="406.5,378.6 614.0,116.0" fill="none" stroke="#4B534E" stroke-width="0.9"/>
<text x="620.0" y="120.0" font-size="11" fill="#4B534E" text-anchor="start">aspiration duct — inlet faces away from light</text>
<polyline points="460.2,313.5 599.0,74.0" fill="none" stroke="#4B534E" stroke-width="0.9"/>
<text x="605.0" y="78.0" font-size="11" fill="#4B534E" text-anchor="start">lift bosses (2-pt suspension, M5)</text>
<polyline points="350.1,225.1 34.0,396.0" fill="none" stroke="#4B534E" stroke-width="0.9"/>
<text x="40.0" y="400.0" font-size="11" fill="#4B534E" text-anchor="start">harness gland (24V / dim / mister)</text>
<polyline points="496.5,304.9 474.0,381.0" fill="none" stroke="#4B534E" stroke-width="0.9"/>
<text x="480.0" y="385.0" font-size="11" fill="#4B534E" text-anchor="start">STEMMA-QT spare jack</text>
<polyline points="363.6,325.9 54.0,426.0" fill="none" stroke="#4B534E" stroke-width="0.9"/>
<text x="60.0" y="430.0" font-size="11" fill="#4B534E" text-anchor="start">down-facing windows: ToF · AS7341 · camera</text>
<text x="24.0" y="56.0" font-size="11" fill="#99521F" text-anchor="start">hardware/cad/canopy.scad — draft v0.1</text>
</svg>