<svg xmlns="http://www.w3.org/2000/svg" viewBox="0 0 760 430" font-family="ui-monospace,Consolas,monospace">
<rect width="760" height="430" fill="#FBFBF9" rx="8"/>
<text x="24" y="34" font-size="17" font-weight="bold" fill="#171C1A">Brain housing — 105 × 80 × 42 mm · PETG (Pi 5 + active cooler)</text>
<text x="736" y="34" font-size="11" fill="#4B534E" text-anchor="end">DRAFT — for design review, not fabrication</text>
<polygon points="340.0,250.0 512.8,349.8 512.8,269.9 340.0,170.2" fill="#DDE0D6" stroke="#171C1A" stroke-width="1.2" stroke-linejoin="round"/>
<polygon points="512.8,349.8 381.1,425.8 381.1,345.9 512.8,269.9" fill="#C9CDC0" stroke="#171C1A" stroke-width="1.2" stroke-linejoin="round"/>
<polygon points="340.0,170.2 512.8,269.9 381.1,345.9 208.4,246.2" fill="#EDEFE8" stroke="#171C1A" stroke-width="1.2" stroke-linejoin="round"/>
<polygon points="369.6,248.1 374.6,250.9 374.6,209.2 369.6,206.3" fill="#FBFBF9" stroke="#4B534E" stroke-width="0.7" stroke-linejoin="round"/>
<polygon points="379.5,253.8 384.4,256.6 384.4,214.8 379.5,212.0" fill="#FBFBF9" stroke="#4B534E" stroke-width="0.7" stroke-linejoin="round"/>
<polygon points="389.4,259.5 394.3,262.4 394.3,220.6 389.4,217.7" fill="#FBFBF9" stroke="#4B534E" stroke-width="0.7" stroke-linejoin="round"/>
<polygon points="399.2,265.2 404.2,268.1 404.2,226.2 399.2,223.4" fill="#FBFBF9" stroke="#4B534E" stroke-width="0.7" stroke-linejoin="round"/>
<polygon points="409.1,270.9 414.0,273.8 414.0,231.9 409.1,229.1" fill="#FBFBF9" stroke="#4B534E" stroke-width="0.7" stroke-linejoin="round"/>
<polygon points="419.0,276.6 423.9,279.4 423.9,237.7 419.0,234.8" fill="#FBFBF9" stroke="#4B534E" stroke-width="0.7" stroke-linejoin="round"/>
<polygon points="428.9,282.3 433.8,285.1 433.8,243.3 428.9,240.5" fill="#FBFBF9" stroke="#4B534E" stroke-width="0.7" stroke-linejoin="round"/>
<polygon points="438.7,288.0 443.7,290.9 443.7,249.1 438.7,246.2" fill="#FBFBF9" stroke="#4B534E" stroke-width="0.7" stroke-linejoin="round"/>
<polygon points="448.6,293.7 453.5,296.6 453.5,254.8 448.6,251.9" fill="#FBFBF9" stroke="#4B534E" stroke-width="0.7" stroke-linejoin="round"/>
<polygon points="489.7,355.4 407.5,403.0 407.5,368.8 489.7,321.2" fill="#FBFBF9" stroke="#171C1A" stroke-width="1.2" stroke-linejoin="round"/>
<polyline points="405.8,250.0 34.0,386.0" fill="none" stroke="#4B534E" stroke-width="0.9"/>
<text x="40.0" y="390.0" font-size="11" fill="#4B534E" text-anchor="start">cooler-aligned intake vents (mirrored exhaust)</text>
<polyline points="447.0,363.1 604.0,326.0" fill="none" stroke="#4B534E" stroke-width="0.9"/>
<text x="610.0" y="330.0" font-size="11" fill="#4B534E" text-anchor="start">USB / Ethernet cutout</text>
<polyline points="356.5,331.7 594.0,91.0" fill="none" stroke="#4B534E" stroke-width="0.9"/>
<text x="600.0" y="95.0" font-size="11" fill="#4B534E" text-anchor="start">mounts outside the wet zone</text>
<text x="24.0" y="56.0" font-size="11" fill="#99521F" text-anchor="start">hardware/cad/brain.scad — draft v0.1</text>
</svg>